<svg width="335" height="364" viewBox="0 0 335 364" fill="none" xmlns="http://www.w3.org/2000/svg">
<path d="M143.945 96.1188C174.305 79.625 211.469 79.625 241.828 96.1188C252.82 101.806 263.289 110.338 269.047 121.713C281.086 144.463 273.758 174.606 283.703 199.063C289.461 213.281 300.453 223.519 309.875 234.894C319.82 246.269 328.719 258.781 329.766 274.138C330.812 287.788 324.531 301.438 316.156 311.106C307.258 320.775 296.266 327.6 284.75 333.288C227.172 361.156 159.648 363.431 101.023 338.975C80.0859 330.444 59.6719 317.931 47.1094 297.456C34.5469 278.688 32.9766 249.113 48.1563 230.912C58.625 218.4 72.7578 212.144 80.6094 196.787C85.3203 187.119 85.3203 175.175 88.9844 164.938C97.8828 135.931 118.297 110.338 143.945 96.1188Z" fill="url(#paint0_linear_1_11)"/>
<path d="M247.586 271.863C245.492 274.138 242.875 275.844 239.734 276.413L176.922 287.788L104.687 301.438C99.4531 302.575 94.7422 300.3 92.125 296.319L125.102 207.594L147.609 253.094L184.25 154.7L247.586 271.863Z" fill="#8785A2"/>
<path d="M102.594 305.419C97.3594 305.419 92.6485 302.575 89.5078 298.594C88.9844 297.456 88.461 296.319 88.9844 294.613L121.961 205.888C122.484 204.75 123.531 203.612 125.102 203.612C126.672 203.612 127.719 204.181 128.242 205.888L147.086 243.994L180.586 153.563C181.109 152.425 182.156 151.288 183.727 151.288C185.297 151.288 186.344 151.856 186.867 152.994L250.203 270.156C250.727 270.725 250.727 271.294 250.727 271.863C250.727 273 250.203 273.569 249.68 274.138C247.063 277.55 243.922 279.256 239.734 280.394L104.688 304.85C104.164 305.419 103.641 305.419 102.594 305.419ZM96.3125 295.181C98.4063 296.888 101.023 298.025 104.164 297.456L239.211 273C240.781 273 241.828 272.431 242.875 271.294L184.25 163.231L150.75 254.231C150.227 255.369 149.18 256.506 147.609 256.506C146.039 256.506 144.992 255.938 144.469 254.231L125.102 216.125L96.3125 295.181Z" fill="#252A34"/>
<path d="M250.203 261.056L215.133 56.3062V55.1687C214.086 47.775 207.281 43.225 200.477 44.3625L158.078 52.325L65.4297 69.3875C58.625 70.525 53.9141 77.35 54.9609 84.7438L90.0313 290.631C90.5547 292.906 91.0781 294.613 92.125 295.75L125.102 207.025L147.609 252.525L184.25 154.131L247.586 271.294C249.68 269.019 250.727 265.038 250.203 261.056Z" fill="white"/>
<path d="M92.125 299.731C91.0782 299.731 90.0313 299.163 88.9844 298.025C87.4141 295.75 86.3672 293.475 86.3672 291.2L51.2969 85.3125C50.7735 80.7625 51.2969 76.2125 53.9141 72.8C56.5313 68.8188 60.1953 66.5438 64.9063 65.4063L157.031 48.3438H157.555L199.953 40.3813C208.852 38.675 217.227 44.9313 218.797 54.0313V55.1688L253.867 260.488C254.914 265.606 253.344 270.156 250.727 274.138C249.68 275.275 248.109 275.844 246.539 275.275C245.492 274.706 244.969 274.138 244.445 273L184.25 163.231L150.75 254.231C150.227 255.369 149.18 256.506 147.609 256.506C146.039 256.506 144.992 255.938 144.469 254.231L125.102 216.125L95.2657 297.456C94.7422 298.594 93.6953 299.731 92.125 299.731C92.125 299.731 92.6485 299.731 92.125 299.731ZM158.602 55.7375C158.602 56.3063 158.078 56.3063 158.602 55.7375L65.9532 72.8C63.336 73.3688 61.2422 74.5063 59.6719 76.7813C58.625 78.4875 58.1016 81.3313 58.1016 83.6063L92.6485 284.375L121.438 205.888C121.961 204.75 123.008 203.613 124.578 203.613C126.148 203.613 127.195 204.181 127.719 205.888L146.563 243.994L180.063 153.563C180.586 152.425 181.633 151.288 183.203 151.288C184.773 151.288 185.82 151.856 186.344 152.994L246.016 262.763V262.194L211.469 55.7375C210.422 50.6188 205.711 47.2063 201 48.3438L158.602 55.7375Z" fill="#252A34"/>
<path d="M159.125 126.263C159.125 139.913 148.656 150.719 135.57 150.719C122.484 150.719 112.016 139.913 112.016 126.263C112.016 112.613 122.484 101.806 135.57 101.806C148.656 101.806 159.125 112.613 159.125 126.263Z" fill="#FF9D23"/>
<path d="M135.57 154.7C120.391 154.7 108.352 142.188 108.352 126.263C108.352 110.906 120.391 97.825 135.57 97.825C150.75 97.825 162.789 110.338 162.789 126.263C162.789 141.619 150.75 154.7 135.57 154.7ZM135.57 105.788C124.578 105.788 115.68 114.888 115.68 126.263C115.68 137.638 124.578 146.738 135.57 146.738C146.562 146.738 155.461 137.638 155.461 126.263C155.461 114.888 146.562 105.788 135.57 105.788Z" fill="#252A34"/>
<path d="M312.492 90.4312L278.992 289.494C277.422 298.594 269.047 304.85 260.148 303.144L176.398 287.787L239.211 276.412C242.352 275.844 244.969 274.137 247.062 271.862C249.156 269.019 250.203 265.037 249.68 261.625L214.609 56.875L298.883 71.6625C308.305 72.8 314.062 81.3312 312.492 90.4312Z" fill="#8785A2"/>
<path d="M263.289 307.125C262.242 307.125 261.195 307.125 260.148 306.556L176.398 291.2C174.828 290.631 173.781 289.494 173.781 287.788C173.781 286.081 174.828 284.375 176.398 284.375L239.211 273C241.305 272.431 243.398 271.294 244.969 269.588C246.539 267.313 247.063 264.469 247.063 262.194L211.992 57.4438C211.992 56.3063 211.992 55.1688 213.039 54.0313C213.563 52.8938 215.133 52.8938 216.18 52.8938L300.453 67.6812C305.688 68.8187 310.398 71.6625 313.539 76.2125C316.156 80.7625 317.727 85.8813 316.68 91.5688L282.656 290.062C281.086 299.731 272.711 307.125 263.289 307.125ZM197.336 287.788L261.195 299.163C268 300.3 274.805 295.75 275.852 288.356L309.352 89.2938C309.875 85.8813 309.352 82.4688 307.258 79.625C305.164 76.7813 302.023 74.5063 298.883 73.9375L219.32 59.7188L253.344 259.35C254.391 263.9 252.82 269.019 250.203 273C247.586 276.413 244.445 278.119 240.258 279.256L197.336 287.788Z" fill="#252A34"/>
<path d="M31.4062 199.631L39.7812 191.1L46.5859 198.494" stroke="#FF9D23" stroke-width="1.422" stroke-miterlimit="10" stroke-linecap="round" stroke-linejoin="round"/>
<path d="M205.711 20.475L213.563 11.375L220.891 19.3375M19.3672 273.569L8.375 284.944" stroke="#9495FA" stroke-width="1.422" stroke-miterlimit="10" stroke-linecap="round" stroke-linejoin="round"/>
<path d="M325.578 192.806L313.016 206.456" stroke="#FF4B4D" stroke-width="1.422" stroke-miterlimit="10" stroke-linecap="round" stroke-linejoin="round"/>
<path d="M170.117 342.388C169.07 342.388 168.023 341.819 167.5 341.25C165.93 339.544 165.93 337.269 167.5 335.563L180.063 321.913C181.633 320.206 183.727 320.206 185.297 321.913C186.867 323.619 186.867 325.894 185.297 327.6L172.734 341.25C172.211 342.388 171.164 342.388 170.117 342.388Z" fill="#FF9D23"/>
<path d="M104.687 26.1625L92.125 39.8125" stroke="#FF9D23" stroke-width="1.422" stroke-miterlimit="10" stroke-linecap="round" stroke-linejoin="round"/>
<defs>
<linearGradient id="paint0_linear_1_11" x1="183.721" y1="84.0954" x2="183.721" y2="356.589" gradientUnits="userSpaceOnUse">
<stop stop-color="white" stop-opacity="0.25"/>
<stop offset="1" stop-color="#F86C66"/>
</linearGradient>
</defs>
</svg>
